<svg version="1.1" xmlns="http://www.w3.org/2000/svg"  viewBox="0 0 64 64" width="64" height="64"><path d="M0 0 C21.12 0 42.24 0 64 0 C64 21.12 64 42.24 64 64 C42.88 64 21.76 64 0 64 C0 42.88 0 21.76 0 0 Z " transform="translate(0,0)" style="fill: #FCFCFD;"></path><path d="M0 0 C0.33 0 0.66 0 1 0 C1.20496094 0.69867188 1.40992187 1.39734375 1.62109375 2.1171875 C1.89050781 3.02726563 2.15992187 3.93734375 2.4375 4.875 C2.70433594 5.77992188 2.97117187 6.68484375 3.24609375 7.6171875 C3.92613826 9.98275381 3.92613826 9.98275381 5 12 C5.06950541 13.54023996 5.08452357 15.08334988 5.0625 16.625 C5.05347656 17.44226563 5.04445312 18.25953125 5.03515625 19.1015625 C5.02355469 19.72804688 5.01195312 20.35453125 5 21 C6.4540625 21.309375 6.4540625 21.309375 7.9375 21.625 C14.7887261 23.58846114 21.14368489 28.00128761 25 34 C25.36996094 34.515625 25.73992188 35.03125 26.12109375 35.5625 C30.15626196 42.04110916 29.89278135 49.61645696 29 57 C27.47265625 60.4609375 27.47265625 60.4609375 26 63 C24.0625 62.625 24.0625 62.625 22 62 C21.67 61.34 21.34 60.68 21 60 C20.360625 59.896875 19.72125 59.79375 19.0625 59.6875 C18.381875 59.460625 17.70125 59.23375 17 59 C15.75 56.4375 15.75 56.4375 15 54 C13.02 54 11.04 54 9 54 C7.40837921 48.42932723 6.79325056 43.78898419 7 38 C6.34 38 5.68 38 5 38 C5 43.28 5 48.56 5 54 C3.02 53.67 1.04 53.34 -1 53 C-1 52.34 -1 51.68 -1 51 C-4.38661083 50.58531296 -6.96641539 50.336906 -9.91796875 52.23046875 C-12.26555979 54.25770621 -14.43299074 56.39146734 -16.546875 58.66015625 C-18.54519737 60.50269542 -20.35111326 60.60266699 -23 61 C-24.485 61.495 -24.485 61.495 -26 62 C-29.79942996 55.9513075 -28.83239421 46.77817251 -27.34765625 40.0390625 C-24.02748502 30.77678225 -17.88066173 26.02311459 -9.234375 21.84765625 C-7 21 -7 21 -4 21 C-4.04640625 20.40574219 -4.0928125 19.81148437 -4.140625 19.19921875 C-4.45198243 12.04911777 -2.7870579 6.54460917 0 0 Z " transform="translate(32,0)" style="fill: #8AABD7;"></path><path d="M0 0 C0.33 0 0.66 0 1 0 C1.20496094 0.69867188 1.40992188 1.39734375 1.62109375 2.1171875 C1.89050781 3.02726563 2.15992188 3.93734375 2.4375 4.875 C2.83775391 6.23238281 2.83775391 6.23238281 3.24609375 7.6171875 C3.92613826 9.98275381 3.92613826 9.98275381 5 12 C5.07033769 13.87379605 5.0843022 15.75001102 5.0625 17.625 C5.05347656 18.62789062 5.04445313 19.63078125 5.03515625 20.6640625 C5.02355469 21.43492188 5.01195312 22.20578125 5 23 C5.66 23 6.32 23 7 23 C7 25.64 7 28.28 7 31 C6.01 30.67 5.02 30.34 4 30 C3.71125 30.78375 3.4225 31.5675 3.125 32.375 C2 35 2 35 0 37 C-2 34 -2 34 -2 30 C-3.32 30.33 -4.64 30.66 -6 31 C-6.33 28.69 -6.66 26.38 -7 24 C-6.01 23.67 -5.02 23.34 -4 23 C-4.04640625 22.26136719 -4.0928125 21.52273437 -4.140625 20.76171875 C-4.41691657 12.99595201 -3.12821844 7.09435254 0 0 Z " transform="translate(32,0)" style="fill: #D96467;"></path><path d="M0 0 C0.99 0 1.98 0 3 0 C2.67 1.98 2.34 3.96 2 6 C2.66 6.33 3.32 6.66 4 7 C3.34 8.32 2.68 9.64 2 11 C2.66 11.33 3.32 11.66 4 12 C3.34 13.32 2.68 14.64 2 16 C3.65 15.67 5.3 15.34 7 15 C6.67 16.65 6.34 18.3 6 20 C3.03 20.66 0.06 21.32 -3 22 C-3.33 19.69 -3.66 17.38 -4 15 C-3.01 14.67 -2.02 14.34 -1 14 C-1.01160156 13.15695313 -1.02320313 12.31390625 -1.03515625 11.4453125 C-1.04417969 10.34960938 -1.05320312 9.25390625 -1.0625 8.125 C-1.07410156 7.03445312 -1.08570313 5.94390625 -1.09765625 4.8203125 C-1 2 -1 2 0 0 Z " transform="translate(29,9)" style="fill: #BD221B;"></path><path d="M0 0 C0.33 0 0.66 0 1 0 C1.20496094 0.69867188 1.40992188 1.39734375 1.62109375 2.1171875 C1.89050781 3.02726563 2.15992188 3.93734375 2.4375 4.875 C2.83775391 6.23238281 2.83775391 6.23238281 3.24609375 7.6171875 C3.92613826 9.98275381 3.92613826 9.98275381 5 12 C5.06996014 13.70702735 5.08440154 15.41668003 5.0625 17.125 C5.05347656 18.03507812 5.04445313 18.94515625 5.03515625 19.8828125 C5.01775391 20.93082031 5.01775391 20.93082031 5 22 C4.34 21.34 3.68 20.68 3 20 C1.68 20 0.36 20 -1 20 C-0.814375 19.443125 -0.62875 18.88625 -0.4375 18.3125 C0.07533672 15.60179165 -0.43659697 13.67616438 -1 11 C-0.67 10.34 -0.34 9.68 0 9 C-0.66 9 -1.32 9 -2 9 C-1.34 6.03 -0.68 3.06 0 0 Z " transform="translate(32,0)" style="fill: #F1574F;"></path><path d="M0 0 C0.66 0 1.32 0 2 0 C2.36082877 2.64508361 2.71395352 5.29079547 3.0625 7.9375 C3.2181543 9.06961914 3.2181543 9.06961914 3.37695312 10.22460938 C3.62665638 12.14474128 3.81790281 14.07228144 4 16 C3 17 3 17 0.4375 17.0625 C-0.366875 17.041875 -1.17125 17.02125 -2 17 C-1.34 16.67 -0.68 16.34 0 16 C0 10.72 0 5.44 0 0 Z " transform="translate(37,38)" style="fill: #C5D6EC;"></path><path d="M0 0 C2 2 2 2 2.1875 5.3125 C2.03317813 8.34749675 1.71340141 11.05721919 1 14 C0.01 14 -0.98 14 -2 14 C-1.85795259 12.41632253 -1.71119847 10.83306682 -1.5625 9.25 C-1.48128906 8.36828125 -1.40007813 7.4865625 -1.31640625 6.578125 C-1.03761535 4.30649548 -0.61209423 2.20148177 0 0 Z " transform="translate(27,36)" style="fill: #BFD0E9;"></path><path d="M0 0 C0.33 0.99 0.66 1.98 1 3 C2.98 2.67 4.96 2.34 7 2 C6.67 3.65 6.34 5.3 6 7 C4.02 7 2.04 7 0 7 C0 4.69 0 2.38 0 0 Z " transform="translate(29,22)" style="fill: #CF2218;"></path><path d="M0 0 C0.33 2.64 0.66 5.28 1 8 C-0.32 8.33 -1.64 8.66 -3 9 C-3.33 6.69 -3.66 4.38 -4 2 C-1 0 -1 0 0 0 Z " transform="translate(29,22)" style="fill: #AB383C;"></path><path d="M0 0 C0.33 0 0.66 0 1 0 C1.33 4.62 1.66 9.24 2 14 C1.01 14 0.02 14 -1 14 C-0.67 12.35 -0.34 10.7 0 9 C-0.66 9 -1.32 9 -2 9 C-1.34 6.03 -0.68 3.06 0 0 Z " transform="translate(32,0)" style="fill: #E27777;"></path><path d="M0 0 C0 1.65 0 3.3 0 5 C-1.65 5.33 -3.3 5.66 -5 6 C-4.6875 4.125 -4.6875 4.125 -4 2 C-1 0 -1 0 0 0 Z " transform="translate(36,19)" style="fill: #F1706A;"></path><path d="M0 0 C0.99 0 1.98 0 3 0 C2.34 1.98 1.68 3.96 1 6 C0.34 6 -0.32 6 -1 6 C-0.67 4.02 -0.34 2.04 0 0 Z " transform="translate(29,9)" style="fill: #BC2F2C;"></path></svg>